<mxfile host="app.diagrams.net" modified="2023-08-17T03:02:38.992Z" agent="Mozilla/5.0 (Macintosh; Intel Mac OS X 10_15_7) AppleWebKit/537.36 (KHTML, like Gecko) Chrome/103.0.0.0 Safari/537.36" version="21.6.8" etag="bn7gKTnXzYk_rpPCF6Xt" type="github">
  <diagram name="第 1 页" id="XFo3yLiu77gITeS0GLnr">
    <mxGraphModel>
      <root>
        <mxCell id="0" />
        <mxCell id="1" parent="0" />
      </root>
    </mxGraphModel>
  </diagram>
</mxfile>
